<svg xmlns="http://www.w3.org/2000/svg" viewBox="0 0 500 500"><g id="freepik--Monster--inject-84"><path d="M175.84,137.55c-6.21,5.21-36.74,42.66-82.17,30.59,0,0,7.81,32.3,23.25,32.3S141.59,177,141.59,177s1.68,4.09,5.68,3.73c8.13-.72,22.54-24.22,28.57-37.45Z" style="fill:#FF6347"></path><path d="M175.84,137.55c-6.21,5.21-36.74,42.66-82.17,30.59,0,0,7.81,32.3,23.25,32.3S141.59,177,141.59,177s1.68,4.09,5.68,3.73c8.13-.72,22.54-24.22,28.57-37.45Z" style="opacity:0.1"></path><path d="M175.84,137.55v3.77c-3.88,5.58-23.07,31.92-41.77,36.46-20.94,5.1-40.4-9.64-40.4-9.64C139.1,180.21,169.63,142.76,175.84,137.55Z" style="opacity:0.1"></path><path d="M324.16,137.55c6.21,5.21,36.74,42.66,82.17,30.59,0,0-7.81,32.3-23.25,32.3S358.41,177,358.41,177s-1.68,4.09-5.68,3.73c-8.13-.72-22.54-24.22-28.57-37.45Z" style="fill:#FF6347"></path><path d="M324.16,137.55c6.21,5.21,36.74,42.66,82.17,30.59,0,0-7.81,32.3-23.25,32.3S358.41,177,358.41,177s-1.68,4.09-5.68,3.73c-8.13-.72-22.54-24.22-28.57-37.45Z" style="opacity:0.1"></path><path d="M324.16,137.55v3.77c3.88,5.58,23.07,31.92,41.77,36.46,20.94,5.1,40.4-9.64,40.4-9.64C360.9,180.21,330.37,142.76,324.16,137.55Z" style="opacity:0.1"></path><path d="M378.26,415.37c-5.68-.7-83.42-25.9-84.84-25.9s-21.53,1.77-43.43,1.77-42-1.77-43.42-1.77-79.15,25.2-84.83,25.9S65,346.51,67.43,344s21.3,1.42,23.42,1.07,38.34-21.29,38.7-23.08,6-46.14,12.07-80.93,18.92-87,34.07-103.53,52.54-26,74.3-26,59.17,9.46,74.32,26,28,68.74,34.07,103.53,11.71,79.16,12.07,80.93,36.56,22.73,38.69,23.08,20.94-3.55,23.43-1.07S383.94,416.09,378.26,415.37Z" style="fill:#FF6347"></path><path d="M225.21,114.93c1.53-.73,8.59-8.36,18.16-11,3.31-.9-2.79,6-2.79,6s14.2-8.54,19.92-10.6c9.55-3.45,14.29-4.17,14.29-2.59,0,3.53-14.88,10.17-17.38,13,0,0,8.83-2.14,11.8-.28s-7.81,3.74-7.81,3.74Z" style="fill:#FF6347"></path><path d="M223.18,199.19a45.41,45.41,0,0,1,.5,15.52,38,38,0,0,1-5.1,14.86,33.3,33.3,0,0,1-5,6.19,34,34,0,0,1-6.4,4.67,37.46,37.46,0,0,1-15,4.22,48.76,48.76,0,0,0,14.17-5.57,36.82,36.82,0,0,0,5.87-4.67,32.71,32.71,0,0,0,4.59-5.89,41.5,41.5,0,0,0,5.27-14.06A63.78,63.78,0,0,0,223.18,199.19Z" style="opacity:0.1"></path><path d="M192.74,173.75c-19.54,0-29.37,15-29.37,32.52,0,14.19,11.6,28.68,30.35,28.68s30.36-17,30.36-30.35S214,173.75,192.74,173.75Z" style="fill:#fff"></path><path d="M193,180.4c-15.3,0-23,11.74-23,25.45C170,217,179,228.3,193.72,228.3s23.76-13.33,23.76-23.76S209.56,180.4,193,180.4Z" style="fill:#263238"></path><path d="M200,180.64c-6.95,0-10.44,5.34-10.44,11.56a10.42,10.42,0,0,0,10.79,10.2c6.66,0,10.79-6.06,10.79-10.79A11,11,0,0,0,200,180.64Z" style="fill:#fff"></path><path d="M175.36,170.15c6.7,1.24,13.39,2.53,20.08,3.83s13.38,2.56,20.05,3.93l-.39,1.58-37-10.2.58-2.47c12.14,2.18,24.28,4.31,36.4,6.55l-.65,2.83L196,171.1l-18.45-5.17.62-2.86,19.74,3.17,19.73,3.22-.51,2.5-38.25-10.21.3-1.59c6.62.84,13.22,1.81,19.84,2.71s13.22,1.84,19.82,2.82q-10-.9-19.93-1.92c-6.64-.67-13.29-1.27-19.92-2l.29-1.59,38.48,9.3-.51,2.5-19.77-3-19.76-3,.62-2.85,18.46,5.11,18.45,5.18-.66,2.83c-12.12-2.24-24.22-4.61-36.33-6.91l.58-2.47,36.75,11.07-.4,1.59c-6.65-1.48-13.27-3.09-19.9-4.63S182,171.77,175.36,170.15Z" style="fill:#263238"></path><path d="M249,131.19c-19.54,0-29.37,15-29.37,32.51,0,14.19,11.6,28.68,30.35,28.68s30.36-17,30.36-30.35S270.24,131.19,249,131.19Z" style="fill:#fff"></path><path d="M249.23,137.83c-15.29,0-23,11.74-23,25.46,0,11.11,9.08,22.45,23.76,22.45s23.76-13.33,23.76-23.76S265.84,137.83,249.23,137.83Z" style="fill:#263238"></path><path d="M249.65,136.71c-6.94,0-10.44,5.33-10.44,11.56A10.43,10.43,0,0,0,250,158.46c6.67,0,10.79-6.05,10.79-10.79A11,11,0,0,0,249.65,136.71Z" style="fill:#fff"></path><path d="M229,135.91q10.22-.22,20.44-.33c6.81-.08,13.62-.22,20.43-.24l-.06,1.64-38.3-2.47.07-2.54c12.32-.33,24.65-.72,37-1l-.07,2.91-19.12-1.24-19.11-1.32,0-2.92,20-.91,20-.86v2.56L230.7,127l0-1.62c6.65-.52,13.32-.91,20-1.37s13.32-.89,20-1.28q-9.94,1.15-19.91,2.18c-6.64.69-13.27,1.46-19.91,2.09l0-1.62,39.57,1.29v2.55l-20,1.11-20,1,0-2.93,19.11,1.25L268.68,131l-.07,2.91c-12.32.26-24.65.41-37,.61l.07-2.54,38.23,3.38-.07,1.63c-6.81-.1-13.62-.32-20.43-.48S235.81,136.15,229,135.91Z" style="fill:#263238"></path><path d="M277,199.19A63.78,63.78,0,0,0,278,214.46a41.48,41.48,0,0,0,5.26,14.06,32.76,32.76,0,0,0,4.6,5.89,36.38,36.38,0,0,0,5.87,4.67,48.65,48.65,0,0,0,14.17,5.57,37.46,37.46,0,0,1-15-4.22,33.64,33.64,0,0,1-6.4-4.67,33.3,33.3,0,0,1-5-6.19,38,38,0,0,1-5.1-14.86A45.66,45.66,0,0,1,277,199.19Z" style="opacity:0.1"></path><path d="M307.44,173.75c19.54,0,29.36,15,29.36,32.52,0,14.19-11.59,28.68-30.35,28.68s-30.35-17-30.35-30.35S286.22,173.75,307.44,173.75Z" style="fill:#fff"></path><path d="M307.22,180.4c15.3,0,23,11.74,23,25.45,0,11.11-9.08,22.45-23.76,22.45S282.69,215,282.69,204.54,290.61,180.4,307.22,180.4Z" style="fill:#263238"></path><path d="M300.14,180.64c6.95,0,10.44,5.34,10.44,11.56a10.42,10.42,0,0,1-10.79,10.2c-6.67,0-10.79-6.06-10.79-10.79A11,11,0,0,1,300.14,180.64Z" style="fill:#fff"></path><path d="M324.64,170.15c-6.62,1.62-13.25,3.18-19.89,4.73s-13.25,3.15-19.9,4.63l-.4-1.59,36.75-11.07.58,2.47c-12.11,2.3-24.21,4.67-36.33,6.91l-.66-2.83,18.45-5.18,18.46-5.11.62,2.85-19.76,3-19.77,3-.51-2.5,38.48-9.3.29,1.59c-6.63.73-13.28,1.33-19.92,2s-13.28,1.32-19.93,1.92q9.9-1.47,19.82-2.82c6.62-.9,13.22-1.87,19.84-2.71l.3,1.59L282.91,172l-.51-2.5,19.73-3.22,19.74-3.17.62,2.86L304,171.1l-18.47,5.1-.65-2.83c12.12-2.24,24.26-4.37,36.4-6.55l.58,2.47-37,10.2-.39-1.58c6.67-1.37,13.37-2.62,20.05-3.93S317.94,171.39,324.64,170.15Z" style="fill:#263238"></path><path d="M281.52,247.92c-1.46,3-19-1.11-31.51-1.11-13.26,0-30.07,4.14-31.53,1.11S225,214.84,250,214.84,283,244.88,281.52,247.92Z" style="fill:#263238"></path><path d="M271.49,248.67c-6.39-.63-14.7-1.86-21.48-1.86-7.11,0-15.26,1.2-21.49,1.83,7.87-15.15,16.08-16.43,21.49-10.38C255.41,232.21,263.63,233.49,271.49,248.67Z" style="fill:#ff99ba"></path><path d="M235.48,247.86c-3.51.41-6.82.81-9.57,1l2.73-10.25,4-.71Z" style="fill:#fff"></path><path d="M276.17,249c-2.86-.09-6.61-.53-10.64-1l3.82-8.45,5.08.35Z" style="fill:#fff"></path><path d="M316.29,273.94a67.79,67.79,0,0,0-9-23.22A56.55,56.55,0,0,0,291,233.88a51.46,51.46,0,0,0-15.73-7.12,4.06,4.06,0,0,1-1.87,2.07,3.53,3.53,0,0,1-3.65-.85,5.24,5.24,0,0,1-2.48,2.59c-1.64.62-3-1.11-3-1.11s-1.71,4.24-4.91,4.38-4.84-5.26-4.84-5.26-1.22,2.67-3.17,2.67-4.91-3.74-4.91-3.74,0-.26,0-.67l-1.39.43a56.74,56.74,0,0,0-20.28,11.59,67.68,67.68,0,0,0-15.17,19.73A87.69,87.69,0,0,0,201.76,313a67.61,67.61,0,0,0,9,23.22A55.36,55.36,0,0,0,227,352.88a55.57,55.57,0,0,0,46,6.62A55.15,55.15,0,0,0,293.29,348a67.43,67.43,0,0,0,15.17-19.74,87.88,87.88,0,0,0,7.83-54.36Zm-29.75,23.47a62.89,62.89,0,0,1-4.37,16,42.11,42.11,0,0,1-7.53,11.93,27.27,27.27,0,0,1-9.92,7,22,22,0,0,1-11.5,1.32,22.32,22.32,0,0,1-10.88-4.54,27.41,27.41,0,0,1-7.53-9.53,42.22,42.22,0,0,1-3.87-13.57,62.74,62.74,0,0,1,.34-16.62,63.82,63.82,0,0,1,4.37-16.16,42.4,42.4,0,0,1,7.56-12,27.28,27.28,0,0,1,9.92-7A22.53,22.53,0,0,1,264.84,253a22.15,22.15,0,0,1,10.66,4.51A27.3,27.3,0,0,1,283,267a42.05,42.05,0,0,1,3.86,13.68A64.48,64.48,0,0,1,286.54,297.41Z" style="fill:#37474f"></path><path d="M311,272.77a67.9,67.9,0,0,0-9-23.22,56.7,56.7,0,0,0-16.31-16.84,51.73,51.73,0,0,0-15.73-7.13,4,4,0,0,1-1.87,2.08,3.54,3.54,0,0,1-3.65-.86,5.23,5.23,0,0,1-2.48,2.6c-1.64.61-3-1.12-3-1.12s-1.71,4.24-4.91,4.39-4.83-5.26-4.83-5.26-1.23,2.67-3.18,2.67-4.91-3.75-4.91-3.75,0-.26,0-.66c-.47.13-.93.28-1.39.43a56.59,56.59,0,0,0-20.27,11.58,67.72,67.72,0,0,0-15.18,19.74,87.69,87.69,0,0,0-7.81,54.36,67.69,67.69,0,0,0,9,23.22,55.28,55.28,0,0,0,16.22,16.71,55.55,55.55,0,0,0,46,6.62A55.29,55.29,0,0,0,288,346.87a67.39,67.39,0,0,0,15.17-19.74A87.7,87.7,0,0,0,311,272.77ZM281.2,296.23a63,63,0,0,1-4.37,16,42.11,42.11,0,0,1-7.53,11.93,27.27,27.27,0,0,1-9.92,7,22.14,22.14,0,0,1-11.5,1.32A22.47,22.47,0,0,1,237,328a27.32,27.32,0,0,1-7.54-9.53,42,42,0,0,1-3.86-13.58,68.25,68.25,0,0,1,4.71-32.77,42.16,42.16,0,0,1,7.55-12,27.43,27.43,0,0,1,9.92-7,22.54,22.54,0,0,1,11.71-1.28,22.1,22.1,0,0,1,10.66,4.5,27.45,27.45,0,0,1,7.54,9.54,42.05,42.05,0,0,1,3.85,13.68A64.4,64.4,0,0,1,281.2,296.23Z" style="fill:#455a64"></path><path d="M262,217.48l-2.55,14h-6.21l-1.77-13.13-.77,8.63-6.33.3-1.8-11.53a28.66,28.66,0,0,1,7.43-1A27.74,27.74,0,0,1,262,217.48Z" style="fill:#fff"></path><path d="M250,391.24l-.09.06-.1-.06Z"></path><path d="M249.8,391.24H250l-.09.06Z"></path><path d="M200.39,385.5s25.67,5.71,49.41,5.74c-21.8,0-41.8-1.77-43.23-1.77s-79.14,25.2-84.82,25.9c-2.38.3-12.64-11.61-23.63-25.79,4.48,3.09,22.29,15.32,24.41,15.32C125,404.9,200.39,385.5,200.39,385.5Z" style="opacity:0.1"></path><path d="M402.1,389.28c-11.07,14.31-21.46,26.4-23.85,26.09-5.68-.7-83.41-25.9-84.83-25.9s-21.54,1.77-43.43,1.77c23.75,0,49.42-5.74,49.42-5.74s75.45,19.4,77.86,19.4C379.46,404.9,398.52,391.76,402.1,389.28Z" style="opacity:0.1"></path><path d="M142.73,234.88s-30.58,36.56-29.16,64.77,26.63,47.75,60.17,47.93c0,0,14.41,1.95,20,0,0,0-6.85-11.36-7.56-13.14,0,0,15.09-4.08,23.61-16.5,0,0-12-5.51-17.53-11.72,0,0,7.41-11,9-12.42,0,0-15.26,1.06-20.59,2.13,0,0-23.6-1.42-32.83-18.46S142.73,234.88,142.73,234.88Z" style="fill:#FF6347"></path><path d="M123.68,326.31a49.55,49.55,0,0,0,10.44,9.27,62.07,62.07,0,0,0,12.34,6.48c1.07.44,2.2.76,3.29,1.16l1.64.56,1.69.45,3.37.88,3.42.63,1.72.31c.57.08,1.15.12,1.73.19l3.46.36c2.31.17,4.64.15,7,.23h.12a79.89,79.89,0,0,0,9.9.78,38.51,38.51,0,0,0,9.75-.89L193,348l-3.92-6.5-1.92-3.29c-.63-1.13-1.25-2.16-1.83-3.47l-.4-.89,1-.32a50.62,50.62,0,0,0,6.64-2.72,55,55,0,0,0,6.24-3.58,41.42,41.42,0,0,0,5.59-4.46,34.64,34.64,0,0,0,4.57-5.41l.43,1.45c-1.66-.76-3.23-1.57-4.8-2.43s-3.11-1.77-4.62-2.74a42.1,42.1,0,0,1-8.4-6.83l-.47-.52.37-.59c1.38-2.18,2.79-4.33,4.26-6.46.74-1.06,1.48-2.11,2.28-3.15a18.09,18.09,0,0,1,2.74-3l.57,1.58c-3.43.2-6.87.46-10.29.77s-6.85.65-10.21,1.22l-.08,0h-.05a44.18,44.18,0,0,1-14.06-2.85,37.78,37.78,0,0,1-12.2-7.4,35.1,35.1,0,0,1-8.21-11.59,45.75,45.75,0,0,1-3.49-13.71,47.74,47.74,0,0,0,4,13.49,34.15,34.15,0,0,0,8.38,11.1,37.25,37.25,0,0,0,12,6.95,42.52,42.52,0,0,0,13.61,2.51h-.13c3.44-.65,6.88-1.07,10.33-1.43s6.89-.61,10.35-.84l2.68-.17-2.12,1.76a17.78,17.78,0,0,0-2.36,2.69c-.76,1-1.49,2.05-2.21,3.1-1.43,2.1-2.82,4.25-4.17,6.41l-.09-1.11a40.26,40.26,0,0,0,8,6.46q2.21,1.4,4.52,2.64c1.53.83,3.11,1.62,4.67,2.33l1.08.49-.65,1a34,34,0,0,1-4.87,5.75,44.42,44.42,0,0,1-5.88,4.64,56.78,56.78,0,0,1-6.49,3.66,53.06,53.06,0,0,1-6.93,2.79l.59-1.21c.44,1,1.1,2.16,1.7,3.24l1.88,3.27,3.87,6.5.61,1-1.14.27a39.27,39.27,0,0,1-10.21.87,81.59,81.59,0,0,1-10.11-1h.12c-2.36-.13-4.72-.15-7.07-.37l-3.52-.43c-.59-.08-1.17-.14-1.76-.23l-1.73-.35-3.47-.7-3.41-1-1.71-.48-1.66-.61c-1.1-.42-2.23-.78-3.3-1.26A63.21,63.21,0,0,1,133.82,336,47.34,47.34,0,0,1,123.68,326.31Z" style="fill:#263238"></path><path d="M122.53,266.05s-13.62,13.3-14.1,22.9c-.17,3.46,5.1-3.54,5.1-3.54s-3.88,11.85-3.19,15.49,3.25-5.37,3.25-5.37Z" style="fill:#FF6347"></path><path d="M356.89,233s22.51,42,15.38,69.35S336.49,343.66,303.61,337c0,0-14.51-1-19.57-4.06,0,0,9-9.73,10.08-11.32,0,0-13.94-7.07-19.76-21,0,0,12.86-2.94,19.55-7.9,0,0-5-12.28-6.3-14,0,0,14.73,4.15,19.73,6.28,0,0,23.4,3.41,35.9-11.39S356.89,233,356.89,233Z" style="fill:#FF6347"></path><path d="M363.15,320.22a45.55,45.55,0,0,1-12.21,10.67,57,57,0,0,1-15,6.42,63.76,63.76,0,0,1-16.21,2.06,80.85,80.85,0,0,1-16.28-1.63l.12,0a81.43,81.43,0,0,1-10.1-1.1,39.42,39.42,0,0,1-9.82-2.93l-1.06-.5.8-.88,5.12-5.58L291,324c.8-.93,1.68-1.93,2.31-2.82l.34,1.31a53.32,53.32,0,0,1-6.22-4.14,54.47,54.47,0,0,1-5.61-4.91,42.63,42.63,0,0,1-4.82-5.73,32.41,32.41,0,0,1-3.59-6.63L273,300l1.13-.25c1.68-.38,3.38-.84,5.05-1.33s3.33-1.06,5-1.67a41.06,41.06,0,0,0,9.2-4.68l-.32,1.06c-.87-2.39-1.8-4.78-2.77-7.13-.49-1.17-1-2.34-1.54-3.48-.27-.57-.54-1.13-.84-1.67a9.86,9.86,0,0,0-.92-1.45l-1.88-2.19,2.75.76c3.35.92,6.66,1.89,10,2.92s6.58,2.16,9.81,3.5l-.12,0a42.81,42.81,0,0,0,13.84.32,37,37,0,0,0,13.16-4.37A34.12,34.12,0,0,0,345,271.1a46.85,46.85,0,0,0,6.61-12.41,44.61,44.61,0,0,1-6.19,12.71,35,35,0,0,1-10.4,9.68,37.59,37.59,0,0,1-13.46,4.77,44,44,0,0,1-14.35-.08h0l-.08,0c-3.17-1.25-6.45-2.28-9.74-3.27s-6.61-2-9.92-2.85l.87-1.44a10.13,10.13,0,0,1,1.18,1.78c.32.58.61,1.17.9,1.75.56,1.18,1.08,2.36,1.59,3.55,1,2.38,1.94,4.77,2.85,7.19l.24.66-.56.41a42.82,42.82,0,0,1-9.61,5q-2.52,1-5.08,1.74c-1.72.52-3.43,1-5.2,1.4l.71-1.33A36.3,36.3,0,0,0,283.22,312a53.21,53.21,0,0,0,5.39,4.78,51.54,51.54,0,0,0,5.94,4l.91.51-.57.79c-.84,1.17-1.65,2.05-2.5,3L289.84,328l-5.16,5.56-.25-1.37a38.63,38.63,0,0,0,9.36,2.84,77.8,77.8,0,0,0,9.85,1.26h.12a80.33,80.33,0,0,0,16,1.86,64.14,64.14,0,0,0,16-1.75,56.35,56.35,0,0,0,15-5.95,52.91,52.91,0,0,0,6.67-4.58A38.73,38.73,0,0,0,363.15,320.22Z" style="fill:#263238"></path><path d="M373.61,287.91s3.08,11.1,1.19,17.37-2.53-2.94-2.53-2.94-.73,11.77-2.09,12.34-.53-4.88-.53-4.88Z" style="fill:#FF6347"></path><g style="opacity:0.1"><path d="M97.13,349.69c.46,8,17.09,9,20.1.69S96.54,339.6,97.13,349.69Z"></path><path d="M350.92,392.27c-2,6.36,9.3,11.44,13.79,5.7S353.42,384.23,350.92,392.27Z"></path><path d="M274.1,377.85c-.76,2.73,2.47,4.13,3.95,1.5S275.05,374.39,274.1,377.85Z"></path><path d="M347.92,318.17c2.78,5.81,15.52,1.52,15.23-5.61S344.41,310.81,347.92,318.17Z"></path><path d="M128.3,349.11c2.28,2.46-3.72,5.95-5.43,3.49S126.47,347.13,128.3,349.11Z"></path><path d="M190.15,152.52c-2.53,2.17-5.12-2.4-2.64-4.1S192.19,150.78,190.15,152.52Z"></path><path d="M361.09,299.38c2.27,2.46-3.72,5.95-5.44,3.48S359.26,297.4,361.09,299.38Z"></path><path d="M120.54,335c6.42-1.13,5.93,9.48,0,8.89S114.77,336,120.54,335Z"></path><path d="M134.72,281.19c3-.54,2.81,4.48,0,4.21S132,281.67,134.72,281.19Z"></path><path d="M198.15,256.6c3-.54,2.8,4.48,0,4.21S195.42,257.08,198.15,256.6Z"></path><path d="M324.1,156.11c3-.53,2.81,4.49,0,4.21S321.37,156.6,324.1,156.11Z"></path><path d="M137.18,270.41c3.55-3.44,8.68,5.86,4.57,7.64S134,273.5,137.18,270.41Z"></path><path d="M347.4,224.06c4.91-.53,3.24,9.95-1.1,8.83S343,224.54,347.4,224.06Z"></path><path d="M291.1,380c3,3.94-6.85,7.91-8.13,3.61S288.42,376.49,291.1,380Z"></path><path d="M184.2,134.59c6.42-1.13,5.93,9.48,0,8.89S178.44,135.61,184.2,134.59Z"></path></g><polygon points="235.56 403.15 239.46 399.98 244.51 401.56 244.51 404.02 235.56 403.15" style="fill:#455a64"></polygon><polygon points="261.71 403.01 260.72 401.69 264.44 402.04 263.83 403.21 261.71 403.01" style="fill:#455a64"></polygon><path d="M254.62,406.33s2.17-2,2.6-2.31,5.5-.14,5.42,1.16-.36,4.33-.94,4.33h-4.62Z" style="fill:#455a64"></path><polygon points="250.29 399.11 252.87 397.92 255.47 397.65 254.93 399.84 254.36 400.41 251.36 400.19 250.29 399.11" style="fill:#455a64"></polygon><path d="M248,401.25h.78l.52.95h-2s-.52-.14-.19-.33S248,401.25,248,401.25Z" style="fill:#455a64"></path></g><g id="freepik--404-error--inject-84"><path d="M126.8,418.9V385.22h-66V358.33l75.72-97.19h20.56v97H177v27.12H157.08V418.9ZM91.09,358.1h39.1V307Z" style="fill:#37474f"></path><path d="M121.2,418.9V385.22h-66V358.33l75.72-97.19h20.56v97h19.89v27.12H151.48V418.9ZM85.49,358.1h39.1V307Z" style="fill:#455a64"></path><path d="M394.62,418.9V385.22h-66V358.33l75.71-97.19h20.57v97H444.8v27.12H424.91V418.9Zm-35.71-60.8H398V307Z" style="fill:#37474f"></path><path d="M389,418.9V385.22H323V358.33l75.71-97.19h20.57v97H439.2v27.12H419.31V418.9Zm-35.71-60.8h39.1V307Z" style="fill:#455a64"></path><path d="M204.7,80.78a9.66,9.66,0,0,1-4.24-.92,10.43,10.43,0,0,1-3.27-2.43A11.22,11.22,0,0,1,194.32,70a10.71,10.71,0,0,1,.8-4.08,11.26,11.26,0,0,1,2.19-3.45,10.44,10.44,0,0,1,3.31-2.39,9.84,9.84,0,0,1,4.17-.88,9.37,9.37,0,0,1,4.22.94,10.52,10.52,0,0,1,3.25,2.48,11.4,11.4,0,0,1,2.1,3.48,11,11,0,0,1,.75,4,10.75,10.75,0,0,1-.78,4.06,11,11,0,0,1-2.16,3.42,10.39,10.39,0,0,1-3.3,2.37A9.84,9.84,0,0,1,204.7,80.78ZM198.52,70a8.57,8.57,0,0,0,.42,2.67,7.14,7.14,0,0,0,1.22,2.28,6,6,0,0,0,2,1.59,6,6,0,0,0,5.28,0,6,6,0,0,0,2-1.63,7.31,7.31,0,0,0,1.2-2.3,8.49,8.49,0,0,0,.4-2.59,8.3,8.3,0,0,0-.43-2.67A7.36,7.36,0,0,0,209.28,65a5.89,5.89,0,0,0-1.95-1.58,6.13,6.13,0,0,0-5.27,0,5.92,5.92,0,0,0-1.95,1.62,7.26,7.26,0,0,0-1.18,2.28A8.56,8.56,0,0,0,198.52,70Z" style="fill:#263238"></path><path d="M225.16,80.93a8.63,8.63,0,0,1-3.45-.66,7.74,7.74,0,0,1-2.59-1.79,7.87,7.87,0,0,1-1.64-2.59,8.74,8.74,0,0,1,0-6.21,7.91,7.91,0,0,1,1.64-2.6,7.72,7.72,0,0,1,2.59-1.78,9.32,9.32,0,0,1,6.89,0,7.88,7.88,0,0,1,2.58,1.78,8.05,8.05,0,0,1,1.63,2.6,8.74,8.74,0,0,1,0,6.21,8,8,0,0,1-1.62,2.59,7.6,7.6,0,0,1-2.58,1.79A8.63,8.63,0,0,1,225.16,80.93Zm-4.11-8.13a5.45,5.45,0,0,0,.32,1.9,4.68,4.68,0,0,0,.87,1.49,3.76,3.76,0,0,0,1.3,1,3.92,3.92,0,0,0,3.24,0,4,4,0,0,0,1.31-1,4.62,4.62,0,0,0,.87-1.5,5.6,5.6,0,0,0,.31-1.92,5.51,5.51,0,0,0-.31-1.89,4.62,4.62,0,0,0-.87-1.5,4,4,0,0,0-1.31-1,3.83,3.83,0,0,0-1.62-.34,3.69,3.69,0,0,0-1.62.36,4,4,0,0,0-1.3,1,4.62,4.62,0,0,0-.87,1.5A5.51,5.51,0,0,0,221.05,72.8Z" style="fill:#263238"></path><path d="M243.34,80.93a8.63,8.63,0,0,1-3.45-.66,7.78,7.78,0,0,1-2.6-1.79,8,8,0,0,1-1.63-2.59,8.74,8.74,0,0,1,0-6.21,8.05,8.05,0,0,1,1.63-2.6,7.76,7.76,0,0,1,2.6-1.78,8.63,8.63,0,0,1,3.45-.66,8.5,8.5,0,0,1,3.43.66,7.67,7.67,0,0,1,2.58,1.78,7.91,7.91,0,0,1,1.64,2.6,8.74,8.74,0,0,1,0,6.21,8,8,0,0,1-1.62,2.59,7.6,7.6,0,0,1-2.58,1.79A8.63,8.63,0,0,1,243.34,80.93Zm-4.11-8.13a5.69,5.69,0,0,0,.31,1.9,4.68,4.68,0,0,0,.87,1.49,3.89,3.89,0,0,0,1.31,1,3.92,3.92,0,0,0,3.24,0,4,4,0,0,0,1.31-1,4.79,4.79,0,0,0,.86-1.5,5.37,5.37,0,0,0,.32-1.92,5.28,5.28,0,0,0-.32-1.89,4.79,4.79,0,0,0-.86-1.5,4,4,0,0,0-1.31-1,3.83,3.83,0,0,0-1.62-.34,3.69,3.69,0,0,0-1.62.36,4.09,4.09,0,0,0-1.31,1,4.62,4.62,0,0,0-.87,1.5A5.76,5.76,0,0,0,239.23,72.8Z" style="fill:#263238"></path><path d="M263.68,80.93a6.2,6.2,0,0,1-3.24-.83,5.86,5.86,0,0,1-2.16-2.23V87h-4V64.91h3.51v2.7A6.43,6.43,0,0,1,260,65.43a6.25,6.25,0,0,1,3.18-.79,6.73,6.73,0,0,1,2.94.64A7.26,7.26,0,0,1,268.46,67,8.31,8.31,0,0,1,270,69.6a9.14,9.14,0,0,1,.55,3.14A9.91,9.91,0,0,1,270,76a8.22,8.22,0,0,1-1.43,2.61,6.63,6.63,0,0,1-2.17,1.74A6.08,6.08,0,0,1,263.68,80.93Zm-1.35-3.42a3.66,3.66,0,0,0,1.67-.39,4.13,4.13,0,0,0,1.3-1.05,4.93,4.93,0,0,0,.84-1.53,5.48,5.48,0,0,0,.3-1.8,5.11,5.11,0,0,0-.33-1.85,4.57,4.57,0,0,0-.92-1.48,4.26,4.26,0,0,0-1.38-1,4.11,4.11,0,0,0-1.72-.36,3.76,3.76,0,0,0-1.17.19,4.14,4.14,0,0,0-1.11.56,5.22,5.22,0,0,0-.92.84,3.47,3.47,0,0,0-.61,1v3.69a5.33,5.33,0,0,0,1.65,2.23A3.78,3.78,0,0,0,262.33,77.51Z" style="fill:#263238"></path><path d="M279.22,80.93a12.16,12.16,0,0,1-3.87-.63,9.44,9.44,0,0,1-3.24-1.8l1.5-2.52a12.86,12.86,0,0,0,2.8,1.54,7.55,7.55,0,0,0,2.72.53A3.43,3.43,0,0,0,281,77.6a1.45,1.45,0,0,0,.69-1.29,1.29,1.29,0,0,0-.81-1.23,17.49,17.49,0,0,0-2.64-.9q-1.53-.42-2.61-.81a6.7,6.7,0,0,1-1.74-.89,3,3,0,0,1-1-1.14,3.62,3.62,0,0,1-.3-1.54,4.89,4.89,0,0,1,.46-2.16A4.74,4.74,0,0,1,274.42,66a6,6,0,0,1,2-1,8,8,0,0,1,2.45-.36,10.48,10.48,0,0,1,3.31.51A8.1,8.1,0,0,1,285,66.77l-1.62,2.43A9.44,9.44,0,0,0,281,67.88a6.33,6.33,0,0,0-2.23-.42,3.23,3.23,0,0,0-1.71.42,1.46,1.46,0,0,0-.69,1.35,1.31,1.31,0,0,0,.16.69,1.47,1.47,0,0,0,.53.48,5.08,5.08,0,0,0,.94.4c.39.13.88.27,1.46.41,1.08.28,2,.56,2.77.84a7.55,7.55,0,0,1,1.89,1,3.4,3.4,0,0,1,1.08,1.24,3.85,3.85,0,0,1,.35,1.7,4.37,4.37,0,0,1-1.71,3.64A7.37,7.37,0,0,1,279.22,80.93Z" style="fill:#263238"></path><path d="M288.1,80.63V76.31h3.3v4.32Z" style="fill:#263238"></path><path d="M294.85,80.63V76.31h3.3v4.32Z" style="fill:#263238"></path><path d="M301.6,80.63V76.31h3.3v4.32Z" style="fill:#263238"></path><path d="M216.73,438.32V442H201.94v-21.3h14.52v3.63H206.08v5.13h9v3.36h-9v5.55Z" style="fill:#263238"></path><path d="M220,442v-21.3h9.42a6.07,6.07,0,0,1,2.72.62,7.12,7.12,0,0,1,2.14,1.62,7.64,7.64,0,0,1,1.41,2.28,6.83,6.83,0,0,1,.51,2.56,7,7,0,0,1-1,3.77,5.87,5.87,0,0,1-2.8,2.44l4.86,8h-4.65l-4.35-7.14h-4.08V442Zm4.14-10.77h5.19a2.21,2.21,0,0,0,1.07-.27,2.69,2.69,0,0,0,.85-.73,3.69,3.69,0,0,0,.57-1.1,4.24,4.24,0,0,0,.21-1.35,3.85,3.85,0,0,0-.24-1.38,3.78,3.78,0,0,0-.64-1.09,2.92,2.92,0,0,0-.93-.72,2.44,2.44,0,0,0-1.07-.26h-5Z" style="fill:#263238"></path><path d="M239.92,442v-21.3h9.42a6.07,6.07,0,0,1,2.72.62,7.12,7.12,0,0,1,2.14,1.62,7.64,7.64,0,0,1,1.41,2.28,6.83,6.83,0,0,1,.51,2.56,7,7,0,0,1-1,3.77,5.87,5.87,0,0,1-2.8,2.44l4.86,8h-4.65l-4.35-7.14h-4.08V442Zm4.14-10.77h5.19a2.21,2.21,0,0,0,1.07-.27,2.69,2.69,0,0,0,.85-.73,3.69,3.69,0,0,0,.57-1.1,4.24,4.24,0,0,0,.21-1.35,3.85,3.85,0,0,0-.24-1.38,3.78,3.78,0,0,0-.64-1.09,2.92,2.92,0,0,0-.93-.72,2.44,2.44,0,0,0-1.07-.26h-5Z" style="fill:#263238"></path><path d="M269,442.1a9.7,9.7,0,0,1-4.25-.91,10.5,10.5,0,0,1-3.26-2.43,11.27,11.27,0,0,1-2.87-7.46,10.52,10.52,0,0,1,.8-4.08,11.23,11.23,0,0,1,2.18-3.45,10.46,10.46,0,0,1,3.32-2.38,9.84,9.84,0,0,1,4.17-.89,9.41,9.41,0,0,1,4.22.95,10.49,10.49,0,0,1,3.25,2.47,11.4,11.4,0,0,1,2.1,3.48,11,11,0,0,1,.75,4,10.8,10.8,0,0,1-.78,4.07,11,11,0,0,1-2.16,3.42,10.39,10.39,0,0,1-3.3,2.37A9.84,9.84,0,0,1,269,442.1Zm-6.18-10.8a8.57,8.57,0,0,0,.42,2.67,7.12,7.12,0,0,0,1.21,2.28,6.19,6.19,0,0,0,2,1.59,6,6,0,0,0,5.27,0,6.2,6.2,0,0,0,2-1.64,7.24,7.24,0,0,0,1.19-2.29,8.48,8.48,0,0,0,0-5.27,7.8,7.8,0,0,0-1.23-2.28,5.89,5.89,0,0,0-2-1.57,6,6,0,0,0-5.26,0,5.92,5.92,0,0,0-1.95,1.62,7.26,7.26,0,0,0-1.18,2.28A8.2,8.2,0,0,0,262.78,431.3Z" style="fill:#263238"></path><path d="M282.55,442v-21.3H292a6.1,6.1,0,0,1,2.72.62,7.12,7.12,0,0,1,2.14,1.62,7.64,7.64,0,0,1,1.41,2.28,6.83,6.83,0,0,1,.51,2.56,7,7,0,0,1-1,3.77,5.87,5.87,0,0,1-2.8,2.44l4.86,8h-4.65l-4.35-7.14h-4.08V442Zm4.14-10.77h5.19a2.21,2.21,0,0,0,1.07-.27,2.69,2.69,0,0,0,.85-.73,3.69,3.69,0,0,0,.57-1.1,4.24,4.24,0,0,0,.21-1.35,3.85,3.85,0,0,0-.24-1.38,3.78,3.78,0,0,0-.64-1.09,3,3,0,0,0-.94-.72,2.37,2.37,0,0,0-1.06-.26h-5Z" style="fill:#263238"></path></g></svg>