<svg xmlns="http://www.w3.org/2000/svg" viewBox="0 0 500 500"><g id="freepik--question-mark--inject-59"><path d="M214,324.13q0-24,7.84-43.13t32.34-33.33q7.36-4.41,18.14-10a146.32,146.32,0,0,0,21.07-13.48,77,77,0,0,0,17.4-18.37,42.36,42.36,0,0,0,7.11-24.27A40.08,40.08,0,0,0,314,163.37a41.61,41.61,0,0,0-10.29-13.23,42.86,42.86,0,0,0-15-8.09,58,58,0,0,0-17.4-2.69A50.56,50.56,0,0,0,251.77,143a66.89,66.89,0,0,0-15.92,9.31,78.06,78.06,0,0,0-12.75,12.75,139.83,139.83,0,0,0-9.55,13.47h-7.38l-35.27-29.4a95.17,95.17,0,0,1,16.91-27,103.76,103.76,0,0,1,24-19.85A112.47,112.47,0,0,1,241,90.1a125.77,125.77,0,0,1,32.35-4.17,128.54,128.54,0,0,1,36.76,5.39,93.42,93.42,0,0,1,32.59,17.16,89,89,0,0,1,23.53,30.14q9.06,18.38,9.06,43.87a94.76,94.76,0,0,1-3.67,27.69A77.22,77.22,0,0,1,361.07,232a91.89,91.89,0,0,1-16.17,17.64,185.28,185.28,0,0,1-21.08,15.19q-9.81,5.9-19.6,11.28a118,118,0,0,0-17.89,12,58.52,58.52,0,0,0-13.24,15.2q-5.14,8.58-5.14,20.83Zm1,114.19V370.69h54.4v67.63Z" style="fill:#FF6347"></path><g style="opacity:0.2"><path d="M214,324.13q0-24,7.84-43.13t32.34-33.33q7.36-4.41,18.14-10a146.32,146.32,0,0,0,21.07-13.48,77,77,0,0,0,17.4-18.37,42.36,42.36,0,0,0,7.11-24.27A40.08,40.08,0,0,0,314,163.37a41.61,41.61,0,0,0-10.29-13.23,42.86,42.86,0,0,0-15-8.09,58,58,0,0,0-17.4-2.69A50.56,50.56,0,0,0,251.77,143a66.89,66.89,0,0,0-15.92,9.31,78.06,78.06,0,0,0-12.75,12.75,139.83,139.83,0,0,0-9.55,13.47h-7.38l-35.27-29.4a95.17,95.17,0,0,1,16.91-27,103.76,103.76,0,0,1,24-19.85A112.47,112.47,0,0,1,241,90.1a125.77,125.77,0,0,1,32.35-4.17,128.54,128.54,0,0,1,36.76,5.39,93.42,93.42,0,0,1,32.59,17.16,89,89,0,0,1,23.53,30.14q9.06,18.38,9.06,43.87a94.76,94.76,0,0,1-3.67,27.69A77.22,77.22,0,0,1,361.07,232a91.89,91.89,0,0,1-16.17,17.64,185.28,185.28,0,0,1-21.08,15.19q-9.81,5.9-19.6,11.28a118,118,0,0,0-17.89,12,58.52,58.52,0,0,0-13.24,15.2q-5.14,8.58-5.14,20.83Zm1,114.19V370.69h54.4v67.63Z"></path></g><path d="M206.66,324.13q0-24,7.84-43.13t32.35-33.33q7.35-4.41,18.13-10a145.86,145.86,0,0,0,21.08-13.48,77.18,77.18,0,0,0,17.4-18.37,42.43,42.43,0,0,0,7.1-24.27,40.08,40.08,0,0,0-3.92-18.13,41.61,41.61,0,0,0-10.29-13.23,42.86,42.86,0,0,0-15-8.09,58,58,0,0,0-17.4-2.69A50.48,50.48,0,0,0,244.4,143a67,67,0,0,0-15.93,9.31,78,78,0,0,0-12.74,12.75,140,140,0,0,0-9.56,13.47l-42.64-29.4a95,95,0,0,1,16.91-27,103.5,103.5,0,0,1,24-19.85A112.53,112.53,0,0,1,233.62,90.1,125.69,125.69,0,0,1,266,85.93a128.49,128.49,0,0,1,36.76,5.39,93.33,93.33,0,0,1,32.59,17.16,88.9,88.9,0,0,1,23.53,30.14q9.06,18.38,9.07,43.87a94.75,94.75,0,0,1-3.68,27.69A77,77,0,0,1,353.69,232a91.89,91.89,0,0,1-16.17,17.64,183.51,183.51,0,0,1-21.08,15.19q-9.79,5.9-19.6,11.28a118,118,0,0,0-17.89,12,58.48,58.48,0,0,0-13.23,15.2q-5.14,8.58-5.15,20.83Zm1,114.19V370.69H262v67.63Z" style="fill:#FF6347"></path></g></svg>